<?xml version="1.0" standalone="no"?>
<svg xmlns="http://www.w3.org/2000/svg" version="1.1" width="493" height="493">
	<!-- Created with https://api.qrserver.com (QR Code API, see goQR.me/api for information) -->
	<title>QR Code</title>
	<desc>https://dobrautz.github.io/boltzmann/lecture/</desc>
	<rect style="fill:rgb(255, 255, 255);fill-opacity:1" x="0" y="0" width="493" height="493" />
	<g id="elements">
		<path style="fill:rgb(0, 0, 0)" d="M 0,0 l 17,0 0,17 -17,0 z M 17,0 l 17,0 0,17 -17,0 z M 34,0 l 17,0 0,17 -17,0 z M 51,0 l 17,0 0,17 -17,0 z M 68,0 l 17,0 0,17 -17,0 z M 85,0 l 17,0 0,17 -17,0 z M 102,0 l 17,0 0,17 -17,0 z M 153,0 l 17,0 0,17 -17,0 z M 221,0 l 17,0 0,17 -17,0 z M 306,0 l 17,0 0,17 -17,0 z M 323,0 l 17,0 0,17 -17,0 z M 340,0 l 17,0 0,17 -17,0 z M 374,0 l 17,0 0,17 -17,0 z M 391,0 l 17,0 0,17 -17,0 z M 408,0 l 17,0 0,17 -17,0 z M 425,0 l 17,0 0,17 -17,0 z M 442,0 l 17,0 0,17 -17,0 z M 459,0 l 17,0 0,17 -17,0 z M 476,0 l 17,0 0,17 -17,0 z M 0,17 l 17,0 0,17 -17,0 z M 102,17 l 17,0 0,17 -17,0 z M 136,17 l 17,0 0,17 -17,0 z M 153,17 l 17,0 0,17 -17,0 z M 187,17 l 17,0 0,17 -17,0 z M 204,17 l 17,0 0,17 -17,0 z M 221,17 l 17,0 0,17 -17,0 z M 238,17 l 17,0 0,17 -17,0 z M 255,17 l 17,0 0,17 -17,0 z M 289,17 l 17,0 0,17 -17,0 z M 306,17 l 17,0 0,17 -17,0 z M 340,17 l 17,0 0,17 -17,0 z M 374,17 l 17,0 0,17 -17,0 z M 476,17 l 17,0 0,17 -17,0 z M 0,34 l 17,0 0,17 -17,0 z M 34,34 l 17,0 0,17 -17,0 z M 51,34 l 17,0 0,17 -17,0 z M 68,34 l 17,0 0,17 -17,0 z M 102,34 l 17,0 0,17 -17,0 z M 153,34 l 17,0 0,17 -17,0 z M 170,34 l 17,0 0,17 -17,0 z M 187,34 l 17,0 0,17 -17,0 z M 238,34 l 17,0 0,17 -17,0 z M 272,34 l 17,0 0,17 -17,0 z M 306,34 l 17,0 0,17 -17,0 z M 340,34 l 17,0 0,17 -17,0 z M 374,34 l 17,0 0,17 -17,0 z M 408,34 l 17,0 0,17 -17,0 z M 425,34 l 17,0 0,17 -17,0 z M 442,34 l 17,0 0,17 -17,0 z M 476,34 l 17,0 0,17 -17,0 z M 0,51 l 17,0 0,17 -17,0 z M 34,51 l 17,0 0,17 -17,0 z M 51,51 l 17,0 0,17 -17,0 z M 68,51 l 17,0 0,17 -17,0 z M 102,51 l 17,0 0,17 -17,0 z M 136,51 l 17,0 0,17 -17,0 z M 153,51 l 17,0 0,17 -17,0 z M 187,51 l 17,0 0,17 -17,0 z M 221,51 l 17,0 0,17 -17,0 z M 238,51 l 17,0 0,17 -17,0 z M 289,51 l 17,0 0,17 -17,0 z M 306,51 l 17,0 0,17 -17,0 z M 340,51 l 17,0 0,17 -17,0 z M 374,51 l 17,0 0,17 -17,0 z M 408,51 l 17,0 0,17 -17,0 z M 425,51 l 17,0 0,17 -17,0 z M 442,51 l 17,0 0,17 -17,0 z M 476,51 l 17,0 0,17 -17,0 z M 0,68 l 17,0 0,17 -17,0 z M 34,68 l 17,0 0,17 -17,0 z M 51,68 l 17,0 0,17 -17,0 z M 68,68 l 17,0 0,17 -17,0 z M 102,68 l 17,0 0,17 -17,0 z M 170,68 l 17,0 0,17 -17,0 z M 204,68 l 17,0 0,17 -17,0 z M 221,68 l 17,0 0,17 -17,0 z M 272,68 l 17,0 0,17 -17,0 z M 289,68 l 17,0 0,17 -17,0 z M 306,68 l 17,0 0,17 -17,0 z M 323,68 l 17,0 0,17 -17,0 z M 340,68 l 17,0 0,17 -17,0 z M 374,68 l 17,0 0,17 -17,0 z M 408,68 l 17,0 0,17 -17,0 z M 425,68 l 17,0 0,17 -17,0 z M 442,68 l 17,0 0,17 -17,0 z M 476,68 l 17,0 0,17 -17,0 z M 0,85 l 17,0 0,17 -17,0 z M 102,85 l 17,0 0,17 -17,0 z M 136,85 l 17,0 0,17 -17,0 z M 170,85 l 17,0 0,17 -17,0 z M 238,85 l 17,0 0,17 -17,0 z M 255,85 l 17,0 0,17 -17,0 z M 289,85 l 17,0 0,17 -17,0 z M 374,85 l 17,0 0,17 -17,0 z M 476,85 l 17,0 0,17 -17,0 z M 0,102 l 17,0 0,17 -17,0 z M 17,102 l 17,0 0,17 -17,0 z M 34,102 l 17,0 0,17 -17,0 z M 51,102 l 17,0 0,17 -17,0 z M 68,102 l 17,0 0,17 -17,0 z M 85,102 l 17,0 0,17 -17,0 z M 102,102 l 17,0 0,17 -17,0 z M 136,102 l 17,0 0,17 -17,0 z M 170,102 l 17,0 0,17 -17,0 z M 204,102 l 17,0 0,17 -17,0 z M 238,102 l 17,0 0,17 -17,0 z M 272,102 l 17,0 0,17 -17,0 z M 306,102 l 17,0 0,17 -17,0 z M 340,102 l 17,0 0,17 -17,0 z M 374,102 l 17,0 0,17 -17,0 z M 391,102 l 17,0 0,17 -17,0 z M 408,102 l 17,0 0,17 -17,0 z M 425,102 l 17,0 0,17 -17,0 z M 442,102 l 17,0 0,17 -17,0 z M 459,102 l 17,0 0,17 -17,0 z M 476,102 l 17,0 0,17 -17,0 z M 204,119 l 17,0 0,17 -17,0 z M 272,119 l 17,0 0,17 -17,0 z M 306,119 l 17,0 0,17 -17,0 z M 0,136 l 17,0 0,17 -17,0 z M 17,136 l 17,0 0,17 -17,0 z M 34,136 l 17,0 0,17 -17,0 z M 51,136 l 17,0 0,17 -17,0 z M 68,136 l 17,0 0,17 -17,0 z M 102,136 l 17,0 0,17 -17,0 z M 119,136 l 17,0 0,17 -17,0 z M 136,136 l 17,0 0,17 -17,0 z M 153,136 l 17,0 0,17 -17,0 z M 170,136 l 17,0 0,17 -17,0 z M 204,136 l 17,0 0,17 -17,0 z M 221,136 l 17,0 0,17 -17,0 z M 238,136 l 17,0 0,17 -17,0 z M 289,136 l 17,0 0,17 -17,0 z M 323,136 l 17,0 0,17 -17,0 z M 357,136 l 17,0 0,17 -17,0 z M 391,136 l 17,0 0,17 -17,0 z M 425,136 l 17,0 0,17 -17,0 z M 459,136 l 17,0 0,17 -17,0 z M 17,153 l 17,0 0,17 -17,0 z M 85,153 l 17,0 0,17 -17,0 z M 136,153 l 17,0 0,17 -17,0 z M 153,153 l 17,0 0,17 -17,0 z M 272,153 l 17,0 0,17 -17,0 z M 289,153 l 17,0 0,17 -17,0 z M 306,153 l 17,0 0,17 -17,0 z M 323,153 l 17,0 0,17 -17,0 z M 340,153 l 17,0 0,17 -17,0 z M 357,153 l 17,0 0,17 -17,0 z M 374,153 l 17,0 0,17 -17,0 z M 391,153 l 17,0 0,17 -17,0 z M 408,153 l 17,0 0,17 -17,0 z M 476,153 l 17,0 0,17 -17,0 z M 17,170 l 17,0 0,17 -17,0 z M 34,170 l 17,0 0,17 -17,0 z M 68,170 l 17,0 0,17 -17,0 z M 102,170 l 17,0 0,17 -17,0 z M 119,170 l 17,0 0,17 -17,0 z M 136,170 l 17,0 0,17 -17,0 z M 153,170 l 17,0 0,17 -17,0 z M 187,170 l 17,0 0,17 -17,0 z M 204,170 l 17,0 0,17 -17,0 z M 238,170 l 17,0 0,17 -17,0 z M 255,170 l 17,0 0,17 -17,0 z M 272,170 l 17,0 0,17 -17,0 z M 306,170 l 17,0 0,17 -17,0 z M 357,170 l 17,0 0,17 -17,0 z M 0,187 l 17,0 0,17 -17,0 z M 17,187 l 17,0 0,17 -17,0 z M 34,187 l 17,0 0,17 -17,0 z M 68,187 l 17,0 0,17 -17,0 z M 85,187 l 17,0 0,17 -17,0 z M 136,187 l 17,0 0,17 -17,0 z M 153,187 l 17,0 0,17 -17,0 z M 170,187 l 17,0 0,17 -17,0 z M 187,187 l 17,0 0,17 -17,0 z M 238,187 l 17,0 0,17 -17,0 z M 255,187 l 17,0 0,17 -17,0 z M 340,187 l 17,0 0,17 -17,0 z M 408,187 l 17,0 0,17 -17,0 z M 425,187 l 17,0 0,17 -17,0 z M 459,187 l 17,0 0,17 -17,0 z M 0,204 l 17,0 0,17 -17,0 z M 34,204 l 17,0 0,17 -17,0 z M 68,204 l 17,0 0,17 -17,0 z M 85,204 l 17,0 0,17 -17,0 z M 102,204 l 17,0 0,17 -17,0 z M 119,204 l 17,0 0,17 -17,0 z M 136,204 l 17,0 0,17 -17,0 z M 153,204 l 17,0 0,17 -17,0 z M 187,204 l 17,0 0,17 -17,0 z M 221,204 l 17,0 0,17 -17,0 z M 238,204 l 17,0 0,17 -17,0 z M 255,204 l 17,0 0,17 -17,0 z M 289,204 l 17,0 0,17 -17,0 z M 340,204 l 17,0 0,17 -17,0 z M 391,204 l 17,0 0,17 -17,0 z M 425,204 l 17,0 0,17 -17,0 z M 442,204 l 17,0 0,17 -17,0 z M 17,221 l 17,0 0,17 -17,0 z M 34,221 l 17,0 0,17 -17,0 z M 119,221 l 17,0 0,17 -17,0 z M 153,221 l 17,0 0,17 -17,0 z M 170,221 l 17,0 0,17 -17,0 z M 204,221 l 17,0 0,17 -17,0 z M 272,221 l 17,0 0,17 -17,0 z M 289,221 l 17,0 0,17 -17,0 z M 306,221 l 17,0 0,17 -17,0 z M 323,221 l 17,0 0,17 -17,0 z M 340,221 l 17,0 0,17 -17,0 z M 374,221 l 17,0 0,17 -17,0 z M 391,221 l 17,0 0,17 -17,0 z M 408,221 l 17,0 0,17 -17,0 z M 476,221 l 17,0 0,17 -17,0 z M 0,238 l 17,0 0,17 -17,0 z M 34,238 l 17,0 0,17 -17,0 z M 51,238 l 17,0 0,17 -17,0 z M 68,238 l 17,0 0,17 -17,0 z M 102,238 l 17,0 0,17 -17,0 z M 119,238 l 17,0 0,17 -17,0 z M 136,238 l 17,0 0,17 -17,0 z M 170,238 l 17,0 0,17 -17,0 z M 221,238 l 17,0 0,17 -17,0 z M 255,238 l 17,0 0,17 -17,0 z M 272,238 l 17,0 0,17 -17,0 z M 289,238 l 17,0 0,17 -17,0 z M 340,238 l 17,0 0,17 -17,0 z M 425,238 l 17,0 0,17 -17,0 z M 442,238 l 17,0 0,17 -17,0 z M 0,255 l 17,0 0,17 -17,0 z M 34,255 l 17,0 0,17 -17,0 z M 68,255 l 17,0 0,17 -17,0 z M 85,255 l 17,0 0,17 -17,0 z M 136,255 l 17,0 0,17 -17,0 z M 153,255 l 17,0 0,17 -17,0 z M 204,255 l 17,0 0,17 -17,0 z M 238,255 l 17,0 0,17 -17,0 z M 255,255 l 17,0 0,17 -17,0 z M 272,255 l 17,0 0,17 -17,0 z M 408,255 l 17,0 0,17 -17,0 z M 459,255 l 17,0 0,17 -17,0 z M 34,272 l 17,0 0,17 -17,0 z M 51,272 l 17,0 0,17 -17,0 z M 68,272 l 17,0 0,17 -17,0 z M 102,272 l 17,0 0,17 -17,0 z M 153,272 l 17,0 0,17 -17,0 z M 170,272 l 17,0 0,17 -17,0 z M 204,272 l 17,0 0,17 -17,0 z M 221,272 l 17,0 0,17 -17,0 z M 238,272 l 17,0 0,17 -17,0 z M 289,272 l 17,0 0,17 -17,0 z M 306,272 l 17,0 0,17 -17,0 z M 323,272 l 17,0 0,17 -17,0 z M 425,272 l 17,0 0,17 -17,0 z M 442,272 l 17,0 0,17 -17,0 z M 0,289 l 17,0 0,17 -17,0 z M 51,289 l 17,0 0,17 -17,0 z M 85,289 l 17,0 0,17 -17,0 z M 119,289 l 17,0 0,17 -17,0 z M 153,289 l 17,0 0,17 -17,0 z M 238,289 l 17,0 0,17 -17,0 z M 272,289 l 17,0 0,17 -17,0 z M 289,289 l 17,0 0,17 -17,0 z M 306,289 l 17,0 0,17 -17,0 z M 323,289 l 17,0 0,17 -17,0 z M 340,289 l 17,0 0,17 -17,0 z M 374,289 l 17,0 0,17 -17,0 z M 391,289 l 17,0 0,17 -17,0 z M 408,289 l 17,0 0,17 -17,0 z M 442,289 l 17,0 0,17 -17,0 z M 476,289 l 17,0 0,17 -17,0 z M 0,306 l 17,0 0,17 -17,0 z M 34,306 l 17,0 0,17 -17,0 z M 102,306 l 17,0 0,17 -17,0 z M 119,306 l 17,0 0,17 -17,0 z M 153,306 l 17,0 0,17 -17,0 z M 170,306 l 17,0 0,17 -17,0 z M 187,306 l 17,0 0,17 -17,0 z M 204,306 l 17,0 0,17 -17,0 z M 238,306 l 17,0 0,17 -17,0 z M 255,306 l 17,0 0,17 -17,0 z M 289,306 l 17,0 0,17 -17,0 z M 340,306 l 17,0 0,17 -17,0 z M 391,306 l 17,0 0,17 -17,0 z M 442,306 l 17,0 0,17 -17,0 z M 0,323 l 17,0 0,17 -17,0 z M 51,323 l 17,0 0,17 -17,0 z M 85,323 l 17,0 0,17 -17,0 z M 119,323 l 17,0 0,17 -17,0 z M 136,323 l 17,0 0,17 -17,0 z M 187,323 l 17,0 0,17 -17,0 z M 323,323 l 17,0 0,17 -17,0 z M 340,323 l 17,0 0,17 -17,0 z M 357,323 l 17,0 0,17 -17,0 z M 391,323 l 17,0 0,17 -17,0 z M 459,323 l 17,0 0,17 -17,0 z M 0,340 l 17,0 0,17 -17,0 z M 34,340 l 17,0 0,17 -17,0 z M 68,340 l 17,0 0,17 -17,0 z M 102,340 l 17,0 0,17 -17,0 z M 119,340 l 17,0 0,17 -17,0 z M 153,340 l 17,0 0,17 -17,0 z M 187,340 l 17,0 0,17 -17,0 z M 204,340 l 17,0 0,17 -17,0 z M 221,340 l 17,0 0,17 -17,0 z M 238,340 l 17,0 0,17 -17,0 z M 272,340 l 17,0 0,17 -17,0 z M 289,340 l 17,0 0,17 -17,0 z M 340,340 l 17,0 0,17 -17,0 z M 357,340 l 17,0 0,17 -17,0 z M 374,340 l 17,0 0,17 -17,0 z M 391,340 l 17,0 0,17 -17,0 z M 408,340 l 17,0 0,17 -17,0 z M 442,340 l 17,0 0,17 -17,0 z M 459,340 l 17,0 0,17 -17,0 z M 476,340 l 17,0 0,17 -17,0 z M 136,357 l 17,0 0,17 -17,0 z M 153,357 l 17,0 0,17 -17,0 z M 170,357 l 17,0 0,17 -17,0 z M 204,357 l 17,0 0,17 -17,0 z M 238,357 l 17,0 0,17 -17,0 z M 272,357 l 17,0 0,17 -17,0 z M 306,357 l 17,0 0,17 -17,0 z M 340,357 l 17,0 0,17 -17,0 z M 408,357 l 17,0 0,17 -17,0 z M 425,357 l 17,0 0,17 -17,0 z M 442,357 l 17,0 0,17 -17,0 z M 459,357 l 17,0 0,17 -17,0 z M 476,357 l 17,0 0,17 -17,0 z M 0,374 l 17,0 0,17 -17,0 z M 17,374 l 17,0 0,17 -17,0 z M 34,374 l 17,0 0,17 -17,0 z M 51,374 l 17,0 0,17 -17,0 z M 68,374 l 17,0 0,17 -17,0 z M 85,374 l 17,0 0,17 -17,0 z M 102,374 l 17,0 0,17 -17,0 z M 136,374 l 17,0 0,17 -17,0 z M 153,374 l 17,0 0,17 -17,0 z M 170,374 l 17,0 0,17 -17,0 z M 238,374 l 17,0 0,17 -17,0 z M 255,374 l 17,0 0,17 -17,0 z M 289,374 l 17,0 0,17 -17,0 z M 306,374 l 17,0 0,17 -17,0 z M 323,374 l 17,0 0,17 -17,0 z M 340,374 l 17,0 0,17 -17,0 z M 374,374 l 17,0 0,17 -17,0 z M 408,374 l 17,0 0,17 -17,0 z M 425,374 l 17,0 0,17 -17,0 z M 442,374 l 17,0 0,17 -17,0 z M 0,391 l 17,0 0,17 -17,0 z M 102,391 l 17,0 0,17 -17,0 z M 153,391 l 17,0 0,17 -17,0 z M 187,391 l 17,0 0,17 -17,0 z M 238,391 l 17,0 0,17 -17,0 z M 255,391 l 17,0 0,17 -17,0 z M 272,391 l 17,0 0,17 -17,0 z M 306,391 l 17,0 0,17 -17,0 z M 323,391 l 17,0 0,17 -17,0 z M 340,391 l 17,0 0,17 -17,0 z M 408,391 l 17,0 0,17 -17,0 z M 0,408 l 17,0 0,17 -17,0 z M 34,408 l 17,0 0,17 -17,0 z M 51,408 l 17,0 0,17 -17,0 z M 68,408 l 17,0 0,17 -17,0 z M 102,408 l 17,0 0,17 -17,0 z M 136,408 l 17,0 0,17 -17,0 z M 170,408 l 17,0 0,17 -17,0 z M 187,408 l 17,0 0,17 -17,0 z M 204,408 l 17,0 0,17 -17,0 z M 221,408 l 17,0 0,17 -17,0 z M 238,408 l 17,0 0,17 -17,0 z M 255,408 l 17,0 0,17 -17,0 z M 272,408 l 17,0 0,17 -17,0 z M 289,408 l 17,0 0,17 -17,0 z M 340,408 l 17,0 0,17 -17,0 z M 357,408 l 17,0 0,17 -17,0 z M 374,408 l 17,0 0,17 -17,0 z M 391,408 l 17,0 0,17 -17,0 z M 408,408 l 17,0 0,17 -17,0 z M 442,408 l 17,0 0,17 -17,0 z M 476,408 l 17,0 0,17 -17,0 z M 0,425 l 17,0 0,17 -17,0 z M 34,425 l 17,0 0,17 -17,0 z M 51,425 l 17,0 0,17 -17,0 z M 68,425 l 17,0 0,17 -17,0 z M 102,425 l 17,0 0,17 -17,0 z M 136,425 l 17,0 0,17 -17,0 z M 153,425 l 17,0 0,17 -17,0 z M 187,425 l 17,0 0,17 -17,0 z M 204,425 l 17,0 0,17 -17,0 z M 238,425 l 17,0 0,17 -17,0 z M 272,425 l 17,0 0,17 -17,0 z M 289,425 l 17,0 0,17 -17,0 z M 306,425 l 17,0 0,17 -17,0 z M 340,425 l 17,0 0,17 -17,0 z M 425,425 l 17,0 0,17 -17,0 z M 442,425 l 17,0 0,17 -17,0 z M 459,425 l 17,0 0,17 -17,0 z M 476,425 l 17,0 0,17 -17,0 z M 0,442 l 17,0 0,17 -17,0 z M 34,442 l 17,0 0,17 -17,0 z M 51,442 l 17,0 0,17 -17,0 z M 68,442 l 17,0 0,17 -17,0 z M 102,442 l 17,0 0,17 -17,0 z M 136,442 l 17,0 0,17 -17,0 z M 153,442 l 17,0 0,17 -17,0 z M 170,442 l 17,0 0,17 -17,0 z M 221,442 l 17,0 0,17 -17,0 z M 255,442 l 17,0 0,17 -17,0 z M 289,442 l 17,0 0,17 -17,0 z M 323,442 l 17,0 0,17 -17,0 z M 340,442 l 17,0 0,17 -17,0 z M 374,442 l 17,0 0,17 -17,0 z M 391,442 l 17,0 0,17 -17,0 z M 408,442 l 17,0 0,17 -17,0 z M 425,442 l 17,0 0,17 -17,0 z M 442,442 l 17,0 0,17 -17,0 z M 459,442 l 17,0 0,17 -17,0 z M 0,459 l 17,0 0,17 -17,0 z M 102,459 l 17,0 0,17 -17,0 z M 136,459 l 17,0 0,17 -17,0 z M 255,459 l 17,0 0,17 -17,0 z M 272,459 l 17,0 0,17 -17,0 z M 340,459 l 17,0 0,17 -17,0 z M 357,459 l 17,0 0,17 -17,0 z M 374,459 l 17,0 0,17 -17,0 z M 408,459 l 17,0 0,17 -17,0 z M 425,459 l 17,0 0,17 -17,0 z M 459,459 l 17,0 0,17 -17,0 z M 0,476 l 17,0 0,17 -17,0 z M 17,476 l 17,0 0,17 -17,0 z M 34,476 l 17,0 0,17 -17,0 z M 51,476 l 17,0 0,17 -17,0 z M 68,476 l 17,0 0,17 -17,0 z M 85,476 l 17,0 0,17 -17,0 z M 102,476 l 17,0 0,17 -17,0 z M 136,476 l 17,0 0,17 -17,0 z M 153,476 l 17,0 0,17 -17,0 z M 170,476 l 17,0 0,17 -17,0 z M 204,476 l 17,0 0,17 -17,0 z M 221,476 l 17,0 0,17 -17,0 z M 238,476 l 17,0 0,17 -17,0 z M 289,476 l 17,0 0,17 -17,0 z M 357,476 l 17,0 0,17 -17,0 z M 374,476 l 17,0 0,17 -17,0 z M 391,476 l 17,0 0,17 -17,0 z M 408,476 l 17,0 0,17 -17,0 z M 442,476 l 17,0 0,17 -17,0 z " />
	</g>
</svg>

